<svg width="600" height="118" viewBox="0 0 600 118" fill="none" xmlns="http://www.w3.org/2000/svg">
<path d="M56.5117 0.0126953C65.4777 0.0127135 73.3356 1.70813 80.1201 5.07617H80.1084C86.8815 8.44424 92.1589 13.221 95.9053 19.4072C99.6629 25.5819 101.536 32.7189 101.536 40.8066V73.8467C101.536 88.3383 97.7784 99.3247 90.2744 106.794C82.7818 114.263 71.7365 117.998 57.1738 117.998H0.384766V20.5762H14.8564C19.665 20.5762 23.5712 16.6579 23.5713 11.835V0.0126953H56.5117ZM208.078 20.2197H141.523V47.5312H203.041V67.7627H141.523V97.7656H208.066V117.997H118.337V0.0117188H208.078V20.2197ZM301.006 80.249V0.0117188H323.701V117.997H303.027L246.559 37.7588V117.997H223.887V0.0117188H244.549L301.006 80.249ZM369.408 117.997H346.223V0.0117188H369.408V117.997ZM481.653 0.0117188V20.2197H415.1V47.5312H476.605V67.7627H415.1V97.7656H481.643V117.997H391.913V0.0117188H481.653ZM554.601 0C563.555 0 571.437 1.69541 578.198 5.06348C584.971 8.43146 590.248 13.2085 593.994 19.3945H593.983C597.741 25.5693 599.614 32.707 599.614 40.7949V73.834C599.614 88.3258 595.867 99.3119 588.363 106.781C580.871 114.25 569.826 117.985 555.264 117.985H498.475V20.5635H512.945C517.754 20.5635 521.66 16.6452 521.66 11.8223V0H554.601ZM32.2637 20.5762C27.4666 20.5876 23.5715 24.4936 23.5713 29.3164V97.4229H56.5117C63.6731 97.4228 69.1099 95.3489 72.8105 91.1904V91.2021C76.5112 87.0436 78.3613 80.9141 78.3613 72.8262H78.3496V41.8154C78.3496 35.4116 76.2713 30.2791 72.1367 26.3955C67.9907 22.512 62.5538 20.5762 55.8379 20.5762H32.2637ZM530.353 20.5752C525.556 20.5867 521.66 24.4927 521.66 29.3154V97.4219H554.601C561.762 97.4219 567.199 95.348 570.899 91.1895V91.2012C574.6 87.0427 576.45 80.9139 576.45 72.8262H576.439V41.8145C576.439 35.4105 574.36 30.2781 570.226 26.3945C566.08 22.511 560.643 20.5752 553.927 20.5752H530.353Z" fill="black"/>
</svg>
